<?xml version="1.0" encoding="UTF-8"?>
<svg id="svg2913" xmlns="http://www.w3.org/2000/svg" viewBox="0 0 672.26 1159.21">
  <defs>
    <style>
      .cls-1 {
        fill: #fff;
        stroke: #000;
        stroke-miterlimit: 10;
      }
    </style>
  </defs>
  <path id="Antarctique" class="cls-1" d="m442.63,842.49h-5.15s-2.72-1.59-2.72-1.59c-1.5-.87-4.34-2.72-6.32-4.11l-3.6-2.53-15.44.29-15.44.29-2.49-2.25c-1.37-1.24-4.89-3.4-7.83-4.82l-5.34-2.57.58-1.91c.32-1.05.47-4.13.34-6.83l-.23-4.92,1.31-2.44,1.31-2.44h3.77l3.99-8.41,3.99-8.41.26-3.73.26-3.73,3.04-3.22,3.04-3.22-1.66-3.53c-.91-1.94-3-7.68-4.63-12.74l-2.97-9.21-6.62-8.39-6.62-8.39,2.7-4.35c1.48-2.39,3.59-5.09,4.69-5.99l1.99-1.64-.87-5.12-.87-5.12-2.42-3.95c-1.33-2.17-2.42-4.82-2.42-5.89,0-1.07-1.13-4.02-2.49-6.56s-4.99-7.2-8.04-10.35c-3.05-3.15-8.52-8.84-12.14-12.66l-6.59-6.93-10.14-5.05-10.14-5.05-6.06-6.29c-3.33-3.46-7.93-7.66-10.22-9.34l-4.16-3.06h-7.3l-.83,2.16-.83,2.16,2.43,1.36c1.34.75,4.1,2.96,6.15,4.92l3.72,3.55-1.57,1.89-1.57,1.89,1.62,3.88,1.62,3.88-.71.7-.71.7-2.77-1.47-2.77-1.47-1.85,1.53-1.85,1.53v8.65h-.98c-.54,0-1.72-1.19-2.63-2.64l-1.66-2.64-3.47.4-3.47.4-3.02,5.76-3.02,5.76.8,4.96.8,4.96-2.29-.97c-1.26-.53-3.45-1.03-4.86-1.11l-2.57-.15-.41,3.52-.41,3.52h-4.49l-3.42,3.56-3.42,3.56.77,4.75.77,4.75,1.76,1.46,1.76,1.46v7.1l-1.93.74-1.93.74v3.99l3.22,1.22,3.22,1.22v1.85c0,1.02-.35,2.76-.78,3.87l-.78,2.03h-8.23l-3.96-4.16c-2.18-2.29-4.64-5.47-5.46-7.08l-1.51-2.92-4.17.28-4.17.28-1.41-.87-1.41-.87-3.37,2.64-3.37,2.64v3.52l-2.89,3.02-2.89,3.02-5.15-.24c-2.83-.13-7.03-.89-9.33-1.68s-6.06-2.1-8.36-2.92l-4.18-1.48-3.86.14c-2.12.08-5.16-.13-6.75-.47l-2.89-.61v-5.4l-4.5-5.28c-2.48-2.9-5.23-5.99-6.11-6.86-.89-.87-2.98-2.88-4.65-4.48-1.67-1.6-7.11-8.09-12.08-14.43-4.97-6.34-9.83-11.99-10.79-12.55l-1.75-1.02v-5.79l-1.64-2.24-1.64-2.24-2.54-.47c-1.4-.26-2.78-.51-3.08-.57-.3-.05.77-1.49,2.37-3.19l2.91-3.09-.49-2.36-.49-2.36-3.57.25-3.57.25.41-2.17.41-2.17,4.81-.4,4.81-.4v-11.11l-3.88-7.35-3.88-7.35.81-4.3.81-4.3h-1.17c-.64,0-1.9.72-2.8,1.6l-1.62,1.6-1.27-2.24-1.27-2.24h-5.02v3.67l-3.63,2.57-1.63,6.07-1.6-4.41-1.6-4.41h-3.52l-.83,2.59c-.45,1.42-.66,4.46-.47,6.74l.36,4.15-.98,1.58c-.54-.63-1.39,1.58-1.88,1.58h-.9l-.22-6.72c-.12-3.7-.21-9.03-.2-11.85,0-2.82-.04-7.14-.11-9.6-.07-2.47-.28-8.91-.48-14.32l-.35-9.83-2.11-2.33-2.11-2.33,2.47-3.02,2.47-3.02v-4.85l3.78-11.73,5.78-8.23-.66-1.69c-.36-.93-2.38-2.67-4.5-3.87l-3.84-2.18v-3.68l3.22-.8,3.22-.8v-1.21c0-.66,1.15-2.28,2.57-3.59l2.57-2.38-.5-17.35-.5-17.35-1.4-2.6c-.77-1.43-3.19-4.1-5.38-5.94l-3.99-3.34h-5.43l-3.93-1-1.32-1.32-1.32-1.32-9.74-1.09c-5.36-.6-10.38-1.48-11.15-1.96l-1.42-.87v-7.02l-1.54-1.54-1.54-1.54h-5.77l-.73-1.17c-.4-.64-3.41-2.46-6.68-4.04l-5.96-2.87-2.34,1.45-2.34,1.45-.81-1.31-.81-1.31,1.42-1.7,1.42-1.7-3.24-2.11-3.24-2.11,2-1.49c0-.82-1.2-2.76-2.67-4.31-1.47-1.55-2.78-3.61-2.92-4.56-.14-.96-1.03-3.59-1.97-5.86l-1.72-4.12-2.55-.81-2.55-.81.64-2.45,3.14-1.95-1.84-7.99c-1.01-4.4,1.77-8.36,1.28-9.41l-.88-1.92,2.44-9.28c-.03-5.11.04-9.28.16-9.28.12,0,1.61,2.48,3.31,5.52l3.1,5.52-1.21,2.71-1.21,2.71-.42,6.09c1.15,3.35-.92,5.13-1.92,7.91v2.32l3.65,3.24c2.01,1.78,2.24,3.53,3.58,4.5l2.42,1.76-1.86,3.47-1.86,3.47,3.19,2.77,1.19,2.77,2.83,5.74,2.83,5.74,4.51,2.41,4.51,2.41,4.88.15,4.88.15,1.14-2.56,1.14-2.56,8.05.16,8.05.16,4.06,2.01,4.06,2.01,4.55,1.83c3.33.46,7.61,1.48,9.52,2.27l3.46,1.44.61,2.33.61,2.33,3.22-.8,3.22-.8,1.39,2.58,1.39,2.58-.78,2.01-.78,2.01h2.44l1.47-3.2,1.47-3.2h2.63v6.13l2.05.78,2.05.78,1.37-.84,1.37-.84,1.41,1.91c.78,1.05,2.72,2.6,4.31,3.44l2.89,1.53v7.68l2.08,3.16,2.08,3.16h4.53l.8,4c.44,2.2.8,7.61.8,12.01v8.01l2.77,1.83,2.77,1.83-2.27,5.93-2.27,5.93-4.89,1.95c-2.69,1.07-5.24,2.5-5.66,3.18l-.76,1.23,2.16,2.15,2.16,2.15,4.6-.76c2.53-.42,6.8-1.37,9.49-2.13l4.89-1.37,1.19-3.12,1.19-3.12h3.75l.73,2.29.73,2.29-2.3,4.43c-1.26,2.44-3.34,5.99-4.61,7.9l-2.31,3.47.83,1.34c.46.74,1.56,1.34,2.44,1.34h1.61l3.7-3.84,3.7-3.84h4.66v2.88s0,2.88,0,2.88l-4.5,3.58-4.5,3.58v3.73h5.19l6.73-3.43c3.7-1.89,6.98-3.62,7.29-3.86.31-.24-.13-1.12-.96-1.95-.84-.83-1.52-2.48-1.52-3.66v-2.15l1.77-1.46,1.77-1.46,2.09.8,2.09.8v7.41h3.77l1.38-2.56,1.38-2.56h13.89l3.51,1.33,3.51,1.33,1.4-1.43,1.4-1.43-4.3-3.61-4.3-3.61.45-2.34.45-2.34,3.46-1.21,3.46-1.21,5.12,1.68,5.12,1.68,5.52-1.39,5.52-1.39,2.06,1.86,2.06,1.86h4.38l.66-1.71.66-1.71-4.51-6.67-4.51-6.67-.83-4.41-.83-4.41.81-3.21.81-3.21h8.96v-3.53c0-1.94-.57-5.51-1.26-7.92l-1.26-4.39,1.77-6.75,1.77-6.75,2.71-3.43,2.71-3.43v-8.47l-2.7-4.56-2.7-4.56h-1.24c-.68,0-4.14.95-7.7,2.1l-6.46,2.1-2.55-2.53-2.55-2.53-.14-4.37-.14-4.37,2.03-8.32c1.11-4.58,2.61-10.05,3.33-12.17.71-2.11,2.01-6.15,2.87-8.96l1.57-5.12,3.9-5.45,3.9-5.45,4.31-2.53c2.37-1.39,4.54-3.26,4.83-4.16.28-.89.87-3.79,1.32-6.43l.8-4.81,2.03-1.6c1.11-.88,3.69-3.24,5.73-5.25l3.7-3.66v-3.57h-2.32c-1.27,0-2.96.64-3.75,1.43l-1.43,1.43-1.4-.86-1.4-.86v-6.19l3.86-1.99,3.86-1.99.02-2.21.02-2.21,3.84-5.64c2.11-3.1,3.83-6.27,3.82-7.04-.01-.77-.51-2.18-1.11-3.13l-1.09-1.72,2.72-4.99c1.5-2.75,3.14-5,3.65-5,.51,0,1.85,1.75,2.97,3.91l2.04,3.92,2.13-.41,2.13-.41.79-3.83c.44-2.11,1.49-5.13,2.35-6.72.86-1.58,2.03-2.88,2.62-2.88h1.06l-.61,3.19-.61,3.19,1.77.68,1.77.68,6.23-1.16,6.23-1.16,3.41,1.77c1.88.97,4.69,1.77,6.26,1.78h2.85s1.37-2.55,1.37-2.55l1.37-2.56,5.39-2.74,5.39-2.74,8.4-.63,8.4-.63,1.93-1.57,1.93-1.57,5.55.19,5.55.19,3.22,4.1,3.22,4.1h1.68c.92,0,2.35-.8,3.16-1.78l1.48-1.78,3.48-.66,3.48-.66,3.65,1.88,3.65,1.88,6.8-.85,6.8-.85,4.36,4.32c2.4,2.38,6.64,6,9.42,8.05l5.06,3.73,11.02,1.82c6.06,1,12.68,1.77,14.7,1.72l3.68-.1,3.92,2.02,3.92,2.02,7.21-.52,7.21-.52,4.15-3.05,4.15-3.05.81.8.81.8.18,9.99.18,9.99,3.2,4.26,3.2,4.26,3.67-.73,3.67-.73,3.94-3.3,3.94-3.3,2.69.66c1.48.36,5.88,1.05,9.77,1.54l7.08.88,1.57,1.24c.86.68,3.76,1.82,6.43,2.53,2.67.71,6.6,1.43,8.72,1.59l3.86.3.44,3.08c.24,1.7,1.04,3.8,1.77,4.69l1.32,1.6h5.82l.71-2.69.71-2.69,1.49.91,1.49.91-.59,2.23-.59,2.23,1.18,2.1,1.18,2.1h3.67l2-3.84c1.1-2.11,2.47-3.84,3.06-3.84s3.03.65,5.43,1.45l4.37,1.45,3.65,3.35c2.01,1.84,4.52,4.99,5.57,7l1.92,3.66-.87,6.27-.87,6.27h-6.49l.93,3.52c.51,1.94-.99,3.33-.89,6.14l-.32,8.62,2.46,3.06c.8,1.41,3.37,3.65,3.88,6.82l.92,5.76,1.91,2.99,1.91,2.99-.41,16.33c1.97,7.61,7.95,11.91,8.39,12.61l.8,1.28-2.12,1.75-2.12,1.75-9.77.23c-5.37.13-11.79.42-14.25.64l-4.49.41-.48,2.49-.48,2.49-3.07,2.41-3.07,2.41v6.22h-12.87v1.24c0,.68,1.23,1.89,2.72,2.69l2.72,1.45,12.9.28,12.9.28,2.39,2.94,2.39,2.94v4.84h1.21c.66,0,3.88,2.31,7.15,5.12l5.95,5.12h6.4l3.78,1.95,3.78,1.95,2.49,4.86c1.37,2.67,3.34,5.56,4.38,6.42,1.04.86,2.38,1.47,2.99,1.36.61-.11,1.87-.13,2.81-.04l1.71.15-.85,3.83-.85,3.83,2.6,3.29,2.6,3.29-.71,1.85-.71,1.85,3.44,7.23,3.44,7.23-.81,4.8-.81,4.8,2.11,6.18,2.11,6.18-.67,3.86-.67,3.86,1.11,5.72,1.11,5.72-1.62,2.3-1.62,2.3.62,6.71c.34,3.69,1.14,7.72,1.78,8.95l1.17,2.24h1.81c.99,0,2.21.64,2.69,1.42l.88,1.42-3.55,2.82-3.55,2.82,1.46,2.72,1.46,2.72v8.73l-11.43,4.22c-4.63,6.45-8.18,15.72-8.56,15.22-4.62-6-.04,3.9-1.15,5.01l-2.02,3.01,1.28,2.39c.71,1.31,1.28,3.54,1.28,4.94v2.55l2.13,2.12,2.13,2.12.58,6.03.58,6.03-1.85,1.53c-1.02.84-4.11,1.99-6.89,2.57l-5.04,1.04-.47,2.51c-.26,1.38-1.05,3.23-1.77,4.11l-1.31,1.6h-5.65l-5.52,4.7-5.52,4.7-2.36,5.49-2.36,5.49-.86,8.06-.86,8.06-1.78,2.83-1.78,2.83.32,2.84.32,2.84-3.22.92c-1.77.51-5.37.98-8.01,1.05l-4.79.13-1.89,3.63-1.89,3.63,1.85,3.56c1.02,1.96,1.85,4.54,1.85,5.74v2.18l-4.84,6.31c-2.66,3.47-6.82,8.48-9.24,11.12l-4.4,4.8h-5.81l-.79,1.28c-.44.7-4.09,2.75-8.12,4.54-4.03,1.79-10.01,4.68-13.3,6.41-3.29,1.73-6.72,3.14-7.62,3.14s-2.55.76-3.67,1.69c-1.12.93-4.35,2.37-7.18,3.19l-5.15,1.5-1.52-2.03-1.52-2.03-7.49.32-7.49.32-2.13-.93-2.13-.93-5.45,2.77-5.45,2.77-2.97-1.58-2.97-1.58-3.98,1.64-3.98,1.64-1.76,2.5-1.76,2.5-2.61-1.39c-1.44-.77-3.74-1.39-5.12-1.39s-4.17.86-6.2,1.91l-3.69,1.91h-5.15ZM95.37,512.9c-1.12.43-2.1.57-2.17.32-.07-.25-.27-2.56-.43-5.14l-.3-4.68-2.21-2.2-2.21-2.2.39-3.36.39-3.36-4.18-.4-4.18-.4v-4.96h-1.13c-.62,0-1.9.92-2.84,2.05l-1.71,2.05-5.05-.67-5.05-.67-1.96-1.95-1.96-1.95,1.52-1.82,1.52-1.82,12.51.5,12.51.5,7.31,2.04,7.31,2.04,3.96,3.85,3.96,3.85v3.13c0,1.72-.6,4.25-1.33,5.61s-1.91,2.48-2.62,2.48h-1.29l.37-3.52.37-3.52-3.62-.41-3.62-.41-1.71,1.41-1.71,1.41-.63,3.26-.63,3.26,1.77.68,1.77.68v1.78c0,.98-.24,1.78-.54,1.78s-1.45.35-2.57.78Zm143.29-7.96h-2.23l-2.04-7.15-4.54-7.65-6.34-6.22-6.34-6.22-1.38-3.93-1.38-3.93,3.08-2.01,3.08-2.01,2.97.42,2.97.42.41,2.88.41,2.88h4.82l.84,1.36c.46.75,2.24,1.89,3.94,2.53l3.1,1.17,2.12,4.42,2.12,4.42-.43,9.56-2.93,9.06h-2.23Zm-198.03-45.33l13.5,14,5-1h-.5l-1.5-4-8-6.5-3.5-3.5-5,1Zm12.5-37l6,12,4-8-10-4Z"/>
</svg>