<?xml version="1.0" encoding="utf-8"?>
<!-- Generator: Adobe Illustrator 27.3.1, SVG Export Plug-In . SVG Version: 6.00 Build 0)  -->
<svg version="1.1" id="Calque_1" xmlns="http://www.w3.org/2000/svg" xmlns:xlink="http://www.w3.org/1999/xlink" x="0px" y="0px"
	 viewBox="0 0 700 700" style="enable-background:new 0 0 700 700;" xml:space="preserve">
<style type="text/css">
	.st0{fill:#1C1D1D;}
	.st1{fill:#FFFFFF;}
</style>
<path class="st0" d="M576.6,520c-2.9-4.5-5.7-9-8.6-13.5c-2.7,0.9-7.6,2.1-13.7,1.5c-5.5-0.6-9.7-2.4-12.1-3.7l-7.4-12.8
	c34.3-23.9,56.7-63.5,56.7-108.4c0-73-59.2-132.2-132.2-132.2c-20.1,0-39.1,4.6-56.1,12.6l-7.6-13.1c6.4-3.1,13-5.8,19.9-7.9
	c-11.4-12.9-22.9-25.8-34.3-38.6c-65.1,37.9-103.8,107.7-99,179.2c5.8,86.3,74,160.8,165.9,176.7v9.9c-25.3,5-84,18.6-79.9,37.7
	h182.4c1.5-19.5-55.5-32.9-80.1-37.7v-10c13.8-1.2,31.8-4.1,51.7-11.1C546,540.1,564.2,529,576.6,520z M312.2,382.9
	c0-50.4,25.5-94.9,64.2-121.5l7.5,13c-34.3,23.9-56.7,63.5-56.7,108.4c0,73.1,59.2,132.2,132.2,132.2c20.1,0,39.1-4.6,56.1-12.6
	l7.5,13c-19.3,9.4-40.8,14.7-63.6,14.7C378.2,530.2,312.2,464.1,312.2,382.9L312.2,382.9z"/>
<path class="st1" d="M586.9,382.3c-9.1-5.6-18.2-11.3-27.3-17l-0.8-0.5l-1.8-0.2l-6.1-0.6l17.1-31.7l-27.8,30.7l-22.6-2l-9.2-5.6
	l-13.6-9.5l24.1-33.6l1.5-2.2l-0.1-1.6l-2.1-27.3c2.7-3.1,5.5-6.2,8.2-9.4c-3.3-2-6.7-4-10-5.9c-0.7-0.4-1.4-0.7-2-1.1
	c-2,13.5-4,27.1-6.1,40.6l-30.1,31l-21,10.2l-9.9-10.8l-6.6,6l-2.4-24.2l7.6-42.6l0.5-2.8c-2.6-6.9-5.3-13.8-7.9-20.6
	c-2.9,0.4-5.8,0.9-8.6,1.4c1.7,7.2,3.5,14.4,5.2,21.6c-4,13.6-7.9,27.3-11.8,41l-0.1,0.4l-0.1,1.5l-1.8,29.1l-45.1-21.8l-1.7-0.8
	c-11.6-2.2-23.2-4.4-34.8-6.6c-1.9,3.6-3.7,7.2-5.5,10.7c12.1,2.6,24.2,5.2,36.3,7.9l32.3,21.9c-1.1,7.2-2.2,14.4-3.3,21.6
	c-24.9-7.5-49.8-15-74.7-22.5c24.4,10.8,48.6,21.5,73,32.3c-21.1,16.4-42.3,32.8-63.4,49.3c22.3-10.5,44.6-20.9,66.9-31.5l16,1
	l-4.8,24.9l-36.4,10.8l34.6-1.6c-3.9,20.4-7.8,40.7-11.6,61.1c2,0.8,3.9,1.5,4.1,1.1c0.1-0.1,0-0.1,0-0.1c-0.2-0.5,7.9-24,27-78.8
	c0.9,3.1,1.7,6.1,2.5,9.2l25.2-7c12.5,27.1,24.8,54.1,37.3,81.2c1.1-0.1,1.9-0.4,2.5-0.8c-5.8-22.2-10.2-38.7-10.2-38.7
	s11.8-21.8,17.7-32.7l-20,21.7l-6-28.6l24.5,5c18.7,9.2,37.4,18.5,56.1,27.7c-18.3-17.5-36.6-35-54.8-52.5
	c-0.1-7.5-0.2-14.9-0.3-22.4l31.5-10l19-0.5c10.3,4.3,20.8,8.6,31.1,12.8C586.8,387.4,586.8,384.9,586.9,382.3z M463.3,406.2
	l-18.9,8.1c-6.2-3-12.3-6.1-18.5-9.2c-2-4.5-4-9-6.1-13.4l-0.9-8.4c-0.9-3.3-1.7-6.7-2.5-10.1c3.1-7.1,6.3-14.3,9.4-21.4l13.8,10.2
	l12.9-7.9c6,0.8,12,1.6,18,2.4c3.7-2,7.3-4.1,10.9-6.1l17.7,22.9c-2.9,5-5.7,10-8.6,15c0.2,10.1,0.4,20.3,0.7,30.4L463.3,406.2z"/>
<path class="st1" d="M684.3,221.3"/>
<path class="st1" d="M674.1,175.6"/>
<path class="st1" d="M596.6,311.1"/>
<g>
	<path class="st0" d="M147.7,461.4c3.8-1.5,77.6,0.7,78,4.9c0.5,4.6-4.5,67.5-47.1,116.3c45.6-38.5,91.2-76.9,136.8-115.4
		c-3.3-9.1-6.5-18.2-9.8-27.2l7.1-68.7l-20.6-42.7L29.4,209.1c20.3,23,40.6,45.9,60.9,68.9l153.4,52.5L68.9,293.9l38.2,36.7l47,19.8
		l93.6,3.3l-113.3,15.8l38,18.2l84.6-8l-65.6,20.7l46.6,28l-92.6,7.1L26.6,411.6l16.1,9.3"/>
</g>
<path class="st0" d="M751.1,312.6l13.7,12.2"/>
<path class="st0" d="M542.5,528c8.5-7.2,17-14.3,25.5-21.5c10.3-3.7,20.7-7.5,31-11.2l-35.6-16.5l13.8-1.5l32.3,1.2l19.7-34.3
	l1.2-25.6l8.9,29.5l-7.6,36.3l-26.3,30.8c-9.6,1.6-19.2,3.2-28.8,4.8"/>
<path class="st0" d="M5.1,418.7"/>
<path class="st0" d="M277,347.8"/>
<path class="st0" d="M381.1,173.1c19.8,7,39.7,14.1,59.5,21.1l17.9,5.1l11.2,12.6l9.7,6.1l4.8,8.9l-2.8,18.2l-11.7-17
	c-10.5,1.1-27.2,2.7-29.6,2.9c-3.8,3-9.3,6.6-16.3,9.2c-2.9,1.1-5.7,1.8-8.2,2.3c-17.2,8.2-34.4,16.4-51.6,24.6"/>
<path class="st0" d="M-118.6,359.7"/>
<path class="st0" d="M251.9,230.5"/>
<path class="st0" d="M63,410.6"/>
<polygon class="st1" points="407.1,197.5 429.9,205.7 405.3,209.9 "/>
</svg>
