<?xml version="1.0" encoding="UTF-8"?>
<svg width="1200pt" height="1200pt" version="1.1" viewBox="0 0 1200 1200" xmlns="http://www.w3.org/2000/svg">
 <g fill-rule="evenodd">
  <path d="m666.66 600v-333.25l128.73-73.629v-80.508l-66.672-39.039-59.746 34.527v-69l-69-39.098-68.953 39.098v71.312l-59.734-36.84-68.941 39.039v78.25l128.68 75.887v333.25z"/>
  <path d="m666.66 600v333.31l128.73 73.633v80.445l-66.672 39.039-59.746-34.539v69.074l-69 39.035-68.953-39.035v-71.316l-59.734 36.781-68.941-39.039v-78.191l128.68-75.887v-333.31z"/>
  <path d="m632.18 540.25-287.39-165.53v-149.4l-68.953-39.035-66.684 39.035v68.941l-59.676-34.465-68.953 41.352v78.203l59.688 34.406-59.688 34.523v78.203l66.566 39.047 128.75-73.582 289.66 167.79z"/>
  <path d="m632.18 540.25 289.59 167.78 128.75-73.57 69 39.094v78.156l-59.809 34.523 59.809 34.465v80.461l-69 39.082-62.062-34.461v68.879l-66.684 39.156-66.625-39.156-2.3281-149.4-287.32-165.52z"/>
  <path d="m565.5 540.25-289.66 167.78-126.36-73.57-69 39.094v78.156l59.734 34.523-59.734 34.465v80.461l66.613 39.082 62.062-34.461v68.879l66.684 39.156 68.953-39.156v-149.4l287.39-165.52z"/>
  <path d="m565.5 540.25 287.39-165.53v-149.4l68.883-39.035 66.684 39.035 2.3164 68.941 57.492-34.465 71.254 41.352v78.203l-62.113 34.406 62.113 34.523v78.203l-68.926 39.047-128.82-73.582-289.59 167.79z"/>
 </g>
</svg>
